<?xml version="1.0" encoding="UTF-8" standalone="no"?>
<!-- Created with Inkscape (http://www.inkscape.org/) -->

<svg
   xmlns:dc="http://purl.org/dc/elements/1.1/"
   xmlns:cc="http://creativecommons.org/ns#"
   xmlns:rdf="http://www.w3.org/1999/02/22-rdf-syntax-ns#"
   xmlns:svg="http://www.w3.org/2000/svg"
   xmlns="http://www.w3.org/2000/svg"
   xmlns:xlink="http://www.w3.org/1999/xlink"
   xmlns:sodipodi="http://sodipodi.sourceforge.net/DTD/sodipodi-0.dtd"
   xmlns:inkscape="http://www.inkscape.org/namespaces/inkscape"
   id="svg2"
   version="1.1"
   inkscape:version="0.91 r13725"
   width="2960"
   height="3020"
   viewBox="0 0 2960 3020"
   sodipodi:docname="newmap_2.svg">
  <metadata
     id="metadata8">
    <rdf:RDF>
      <cc:Work
         rdf:about="">
        <dc:format>image/svg+xml</dc:format>
        <dc:type
           rdf:resource="http://purl.org/dc/dcmitype/StillImage" />
        <dc:title></dc:title>
      </cc:Work>
    </rdf:RDF>
  </metadata>
  <defs
     id="defs6" />
  <sodipodi:namedview
     pagecolor="#ffffff"
     bordercolor="#666666"
     borderopacity="1"
     objecttolerance="10"
     gridtolerance="10"
     guidetolerance="10"
     inkscape:pageopacity="0"
     inkscape:pageshadow="2"
     inkscape:window-width="959"
     inkscape:window-height="744"
     id="namedview4"
     showgrid="false"
     inkscape:zoom="0.44205881"
     inkscape:cx="1585.2759"
     inkscape:cy="1383.6783"
     inkscape:window-x="65"
     inkscape:window-y="24"
     inkscape:window-maximized="1"
     inkscape:current-layer="svg2" />
  <image
     sodipodi:absref="/home/loong/weikang_ws/src/pointcloud_cluster/src/pointcloud_registration/map/newmap_2.png"
     xlink:href="newmap_2.png"
     style="stroke:#00e900;stroke-opacity:1"
     y="0"
     x="0"
     id="image10"
     preserveAspectRatio="none"
     height="3020"
     width="2960" />
  <path
     style="fill:none;fill-rule:evenodd;stroke:#000000;stroke-width:1px;stroke-linecap:butt;stroke-linejoin:miter;stroke-opacity:1"
     d="m 995.68641,1779.5408 -5.72905,0.081 -6.70509,-0.101 -5.34801,-0.072 -3.82711,-0.082 -4.56628,-0.066 -4.77959,0.036 -4.95812,-0.094 -5.68973,-0.3059 -5.83537,0.05 -5.90519,0.2647 -5.90756,-0.046 -6.14873,0 -7.15887,-0.085 -7.20571,0.075 -7.34985,0.012 -7.71223,0.063 -7.91014,0.1436 -7.18491,-0.093 -6.95491,-0.058 -7.62962,-0.03 -7.70886,-0.094 -8.06765,0.2358 -7.82019,-0.035 -7.60503,0.066 -7.53842,-0.2996 -7.35501,-0.2382 -7.3775,-0.5263 -8.23993,-1.014 -7.25836,-1.3058 -7.20864,-1.6984 -7.80253,-2.1973 -6.77135,-2.3732 -6.98132,-2.7148 -6.52437,-3.3162 -6.33931,-3.477 -6.50679,-4.4647 -5.73638,-4.8401 -5.66045,-5.4166 -5.09417,-5.6375 -5.02455,-5.7457 -4.64098,-6.148 -4.23937,-6.1655 -3.62118,-6.5583 -3.09859,-6.3539 -3.40306,-7.4337 -2.36067,-6.7568 -2.5979,-8.3754 -1.15115,-6.6594 -1.22359,-6.6479 -0.86402,-6.5177 -1.27144,-7.9821 -1.17567,-8.4863 -0.75614,-8.8164 -0.97506,-10.4032 -0.29493,-9.0364 -0.33517,-9.292 -0.50666,-11.3426 -0.0802,-9.5019 0.0654,-9.7335 0.31261,-9.4981 0.51706,-10.1238 1.13919,-9.236 1.24246,-9.7114 2.14482,-9.5719 3.01917,-11.0027 3.348,-9.7832 4.52065,-12.1365 4.84197,-10.7763 5.72361,-10.6812 5.59396,-8.9326 5.94012,-8.2544 6.17601,-7.0022 7.27615,-7.3745 7.431,-6.8818 8.23781,-6.301 8.11621,-6.067 8.08747,-5.3769 9.91797,-6.2998 8.90055,-4.2253 8.95967,-3.4449 10.5173,-3.5372 9.36827,-2.9199 10.93737,-2.3183 10.45917,-2.6473 10.46496,-1.9121 10.98904,-1.6597 11.27597,-1.4176 12.23652,-0.7108 10.86772,-0.5975 11.33915,0.298 11.92997,0.4263 12.01558,0.3396 11.57884,0.5677 12.39547,0.3744 12.62453,0.1728 12.28582,0.6687 11.98731,-0.031 10.8583,0.4195 11.6806,0.2108 13.5479,1.0521 13.4425,1.4186 11.9543,0.6468 10.2969,0.4063 12.1497,1.2674 11.5195,0.2996 13.5052,0.1911 13.5717,-1.4877 12.2489,1.2695 15.8062,2.5662 13.515,1.3924 14.1221,-0.1986 12.9937,-0.1799 13.0393,0.2758 12.6039,0.4513 15.2329,-0.3758 20.0402,-0.4267 12.091,-0.3031 16.3943,0.055 16.9038,0.048 12.8689,0.3512 9.9733,-0.228 14.2294,-0.053 16.462,0.3776 11.0759,0.057 14.4012,0.4164 14.9927,0.4289 15.84,-0.133 14.8952,-0.2479 15.5817,-0.2189 12.01,0.2133 17.6134,0.098 15.4347,0.7426 15.629,0.5184 13.9371,0.5891 16.2752,0.1113 23.405,-0.3082 12.021,-0.08 13.2369,-0.741 17.5871,-0.071 13.9854,0.073 11.7046,-0.3757 10.8491,-0.6998 17.3966,0.1265 15.5677,0.2852 15.6028,-0.037 11.1272,0.02 13.3318,1.9326 12.359,-0.8371 12.1267,-0.3473 13.6774,0.1783 15.5291,0 14.1831,0.3738 13.2058,0.2531 14.2497,-0.3694 12.1224,0.3287 12.6096,-0.1759 11.29,0.2434 12.9836,-0.3242 10.6379,-0.3859 11.3671,-1.009 11.6319,-0.2057 10.9843,-0.6478 11.342,-0.9659 10.3019,-1.4204 10.9716,-1.9867 9.5928,-2.2926 9.8066,-2.6214 9.3745,-3.6525 9.2942,-3.7188 8.9813,-3.8602 7.9781,-4.8579 7.5911,-5.245 8.953,-6.4349 7.3858,-7.0474 6.1754,-6.6989 7.3594,-6.0303 5.7367,-7.0949 5.636,-7.1346 4.8894,-7.4776 4.7978,-9.1089 3.3172,-10.2611 3.2153,-8.4367 2.8744,-10.169 2.4867,-9.7007 1.9613,-10.1699 1.2329,-10.0728 1.0095,-10.1916 0.4464,-11.0319 0.029,-10.465 -0.021,-9.9575 -0.5172,-10.0362 -0.4232,-9.8371 -0.2288,-11.3688 -0.265,-11.9017 -0.2726,-10.4592 -0.2831,-10.3345 -0.2802,-10.7735 -0.4568,-10.8362 -0.6094,-12.666 -0.013,-11.34 -0.1039,-11.1079 -0.268,-11.478 -0.6545,-11.8336 -0.6154,-13.2467 0.2383,-9.2252 -0.2448,-10.517 -0.092,-10.4358 -0.037,-11.0994 -0.6901,-9.9459 -1.1128,-11.47324 -0.8731,-8.60168 -1.3308,-8.21749 -1.4218,-8.35563 -1.7953,-7.07117 -2.1983,-7.09307 -2.8652,-7.77036 -3.0963,-6.89254 -3.5071,-6.48812 -3.9241,-6.05732 -4.7394,-6.63459 -4.753,-5.95783 -4.8604,-5.20049 -5.9405,-5.62847 -6.5262,-5.40876 -7.0186,-5.21686 -7.0088,-3.90851 -7.7639,-3.74502 -7.8675,-3.19996 -7.7986,-2.44118 -8.7546,-2.1671 -7.8283,-1.6087 -8.1055,-0.91877 -8.3711,-0.87096 -8.5782,-0.27409 -9.7426,-0.64576 -8.6522,-0.30553 -9.5703,0.10081 -9.3358,0.23122 -7.8336,0.43381 -8.6421,0.16051 -9.6767,0.52531 -8.544,0.4019 -10.8048,0.42179 -9.7038,0.70463 -9.6287,0.85499 -8.6815,0.26027 -9.6734,0.51196 -9.6374,0.10962 -10.5635,0.44482 -11.1337,0.20027 -11.1171,-0.18257 -10.2955,-0.10335 -11.5527,-0.0932 -10.454,-0.28916 -11.9171,-0.0179 -11.8266,-0.34525 -12.0639,0.15969 -10.8477,-0.16574 -11.898,-0.1692 -12.0275,-0.48198 -11.9278,0.46803 -11.6707,-0.005 -8.5731,-0.0603 -12.1867,0.43263 -12.0845,-0.0462 -10.3098,0.26545 -12.8486,-0.76295 -11.1462,-0.76432 -11.9763,-0.583 -9.5885,-0.2556 -11.4415,-0.73285 -10.8988,-0.30754 -10.9264,-0.054 -12.4338,0.60462 -9.0503,0.63579 -11.674,0.25955 -7.8295,1.26892 -8.2868,1.45277 -9.0163,2.41225 -7.8617,1.98495 -8.385,2.59539 -7.2698,3.06294 -6.8882,3.28219 -6.0912,3.69818 -5.1815,4.17914 -4.8919,3.60886 -5.0126,4.17712 -3.5669,3.56097 -3.2746,4.37172 -2.8302,3.41019 -2.1616,4.31104 -1.7621,3.52859 -3.0337,8.19595 -1.6239,8.56527 -1.1364,7.05322 -0.5556,8.15763 -0.5626,6.85917 -0.2473,5.34677 -0.6471,5.28828 -0.6591,5.78454 -0.6073,6.21205 -0.6003,6.82509 -0.4035,6.60595 -0.3144,7.365 -0.1322,7.1968 -0.3303,7.2439 -0.071,8.0304 0.054,8.9426 0.1788,7.2254 0.2164,8.8318 0.4011,9.818 0.208,8.7252 0.1172,9.6082 0.453,10.4348 0.219,10.2116 0.2744,10.2496 -0.2775,11.0059 -0.078,10.9515 0.3244,10.4791 0.2266,11.2381 0.1826,11.3878 -0.066,10.9786 -0.1673,11.2576 -0.285,10.8613 -0.1,9.6234 0.3333,10.6939 0.1611,9.7824 -0.1986,9.6375 0.3044,9.9126 1.1066,9.2037 0.2948,9.3649 0.6376,9.2758 0.5725,8.7367 0.6544,7.6116 0.4811,7.5006 0.6631,8.0585 0.722,7.4777 1.175,7.0501 1.2456,6.9409 1.775,7.5535 2.0265,7.1673 2.9978,6.6145 2.8684,6.468 3.989,6.2833 4.3417,5.8826 4.9112,5.5365 5.8398,5.734 5.6515,4.6539 6.3208,3.8053 7.0395,3.6289 8.0569,3.0596 8.2099,2.4205 8.9789,1.7206 8.2846,0.855 10.2053,0.8419 9.8992,0.2426 9.9903,0.2701 9.6912,-0.1214 11.4634,-0.6361 12.3092,-0.3175 12.4908,-0.556 12.2347,-0.3338 13.435,-0.5656 11.7162,-0.4936 15.7301,-0.2012 8.3881,-0.2915 12.0517,-0.7376 13.7918,-0.2673 12.5842,-0.2337 18.7043,0.3705 14.2122,-0.735 13.3543,-0.1849 15.7866,0.321 13.506,-0.5975 15.0091,0.066 13.2636,-1.1523 13.6019,-0.229 13.5304,0.293 14.7965,0.138 14.111,0.044 14.0395,-0.2883 12.6097,0.1847 13.5788,0.1025 11.272,0.9617 12.581,0.1452 12.8374,0.05 13.5347,-0.1106 12.7134,-1.0328 11.9883,-1.6905 10.9028,-2.1238 11.1595,-2.2745 11.845,-3.0961 10.4654,-4.34 11.0514,-4.4553 9.5174,-5.2866 9.0394,-6.7068 8.7925,-7.0254 8.4078,-7.1009 7.9116,-7.466 6.2374,-8.1804 6.4344,-9.046 5.4516,-9.8371 4.4174,-9.2158 3.7394,-9.7681 2.7392,-10.3935 3.0325,-10.6585 1.8399,-12.0795 1.2753,-14.3311 1.1078,-12.1365 1.0055,-13.1052 -0.1307,-11.2215 -0.062,-9.8895 -0.5506,-9.9394 -0.2437,-12.0873 -0.1667,-9.7404 -0.3452,-11.4856 -0.026,-13.1882 -0.2618,-12.8832 0.021,-12.8824 -0.3894,-11.7763 0.1639,-11.2778 0.1092,-12.6451 0.1085,-9.4446 0.1318,-11.9352 0.2044,-11.4288 0.026,-10.1634 -0.1606,-10.7378 -0.1243,-10.2497 -0.8131,-11.7875 -0.3804,-8.5613 -1.0036,-11.18814 -1.2381,-7.86911 -1.7402,-9.09064 -2.4915,-10.61178 -2.9528,-9.77883 -3.6158,-9.00036 -4.5081,-9.33435 -4.5825,-8.41399 -6.0381,-8.45597 -6.5773,-8.39371 -5.7622,-5.48948 -7.3882,-6.84604 -8.1209,-6.04904 -9.3784,-5.08612 -8.488,-4.22548 -10.4636,-3.97447 -11.7017,-4.09939 -9.7803,-1.71606 -10.261,-1.61816 -9.2037,-0.30924 -9.7423,0.33018 -9.6574,0.31953 -10.804,0.51122 -10.7892,0.66611 -10.5242,1.02681 -10.1098,0.53529 -11.6423,0.9339 -11.9843,0.56291 -8.9558,-0.0102 -9.0079,-0.15658 -10.6546,-0.14124 -8.2202,-0.13422 -10.5898,-0.0158 -12.6301,-0.32266 -10.4554,-0.0657 -11.7887,0.028 -11.2819,0.0439 -11.2928,-0.4098 -11.2427,-0.3926 -12.365,-0.21671 -10.202,0.2124 -10.3988,-0.33196 -11.2381,0.0904 -11.8085,-0.17976 -11.3211,0.16167 -13.5429,-0.26141 -9.5436,-0.61754 -10.3042,-0.3843 -12.4701,0.19634 -10.8545,-0.24467 -12.7493,-0.48875 -12.9979,-0.62248 -12.1387,-0.96057 -11.5901,-0.99878 -11.2173,-0.5394 -10.7729,-0.58061 -12.4704,0.15888 -9.3103,-0.0555 -9.2804,-0.15001 -8.7978,0.38519 -10.9489,1.35971 -10.1213,1.81581 -10.3075,2.38944 -9.5906,2.75603 -9.4707,3.47179 -7.8013,3.3736 -7.7328,4.4135 -7.0543,4.86596 -6.9712,6.1133 -6.7594,6.32307 -6.1133,7.13959 -4.3529,7.66548 -4.4608,6.57079 -3.8624,7.80798 -3.2366,8.46846 -3.7976,9.513 -1.9872,9.6876 -1.4593,8.31605 -0.763,9.42391 -0.1207,8.42103 -0.4039,9.56068 -0.2766,10.2424 -0.1263,10.5709 0.507,9.4844 -0.094,9.8278 1.1095,10.2267 0.4131,9.6365 0.279,10.6356 -0.031,9.1627 0.097,9.7917 0.314,10.45 0.1232,9.1862 1.0357,9.7525 1.0493,11.2615 0.8853,10.9961 -0.3511,9.4126 0.6624,9.3599 0.8816,8.7955 -0.1318,11.2374 0.4206,10.7943 0.2846,10.8865 0.6675,12.0154 0.02,9.5154 -0.2805,10.2252 0.081,10.4473 0.04,10.2112 0.02,10.436 0.01,9.0789 -0.4539,9.1223 -0.025,9.9632 -0.4821,8.4532 -0.6688,9.8835 -1.1124,9.1866 -1.2189,8.5911 -1.8983,9.1414 -1.6662,8.6541 -2.3078,9.188 -2.786,7.5819 -3.4845,7.745 -3.5262,6.8793 -3.8191,7.2939 -4.3607,6.8826 -5.841,6.6917 -5.0377,5.5883 -6.1102,5.693 -6.9638,4.9738 -7.1683,5.0009 -8.2641,4.8486 -8.3474,3.7625 -8.8712,3.593 -8.7548,2.902 -8.4768,1.8947 -9.5859,2.1109 -10.2271,1.7103 -9.4312,1.7031 -10.2268,1.2807 -11.3219,1.1638 -10.4243,0.5593 -11.4402,1.4541 -11.1989,1.0579 -13.0285,0.8222 -12.8772,0.8143 -10.562,0.9522 -12.1169,0.6094 -12.4688,0.7575 -11.3238,0.6121 -11.915,0.1968 -11.1369,0.2379 -10.7921,-0.2668 -10.5428,-0.02 -10.0857,-0.6338 -9.285,-0.3361 -10.7276,0.1262 -11.1196,-0.4875 -12.4076,-0.163 -9.8053,-0.091 -9.0613,0 -8.5596,0 -7.94134,-0.2075 -8.96985,0.095 -7.81619,-0.065 -7.33487,-0.1144 -7.26292,0.025 -6.88511,0.048 -6.18855,-0.2234 -6.0389,0.01 -5.93819,0.1461 -6.04883,0.1465 -6.16226,0.1029 -6.97508,0.041 -6.96237,0.1931 -7.43608,0.2108 -7.22018,0.4818 -7.20568,0.7527 -7.96165,1.1273 -7.35765,1.349 -7.97699,1.8264 -7.72172,2.2025 -8.40207,2.9228 -8.51773,3.0604 -7.66304,3.6358 -7.55506,4.0901 -7.95671,4.7405 -6.80229,5.0965 -6.265,5.3606 -6.91113,6.7446 -6.91495,6.981 -6.65639,7.808 -6.21748,8.8974 -4.85253,7.8434 -4.41605,8.5339 -3.66697,8.6866 -3.58517,9.2315 -2.71803,8.9582 -2.29085,9.1563 -1.30797,8.6363 -1.61865,11.1001 -0.73106,8.7706 -0.17485,10.1034 0.21451,9.178 0.8938,10.319 2.03381,11.01 2.27584,11.1193 3.69408,9.2376 4.40911,9.2201 5.62928,10.0154 6.65751,10.8239 7.17466,8.8814 8.84793,7.3018 9.11398,9.5686 10.30733,5.7352 9.15859,4.3325 10.07886,3.5634 9.28243,1.4606 10.36744,1.5447 10.28262,0.4606 11.15932,0.6542 11.32907,-0.1669 11.66217,-0.7223 10.45865,-1.1358 10.02701,-0.7001 10.15376,-0.7611 10.08814,-0.044 10.86764,-0.524 10.49902,-0.1852 10.50305,-0.8017 8.97437,-0.5403 9.19075,-0.4974 10.03095,-0.2303 8.70971,-0.4219 9.6371,-0.011 9.1577,-0.3474 7.1994,-0.3479 7.1838,-0.3099 7.5591,-0.2178 6.8214,-0.1826 6.4046,0.012 6.0882,-0.029 5.5971,-0.1623 5.1186,0.089 5.0238,0.1352 4.0593,0.2505 4.4839,0.073 5.7174,0.2084 6.7624,0.052 5.9688,-0.094 5.0559,0.1793 4.2983,0.1252 4.417,0.078 4.8761,-0.064 4.0296,-0.1338 4.3474,-0.3529 4.3147,-0.06 4.6744,-0.4567 4.3148,-0.4772 4.6475,-0.9339 4.893,-0.8994 5.0508,-0.9425"
     id="path_all"
     inkscape:connector-curvature="0" />
  <path
     style="fill:none;fill-rule:evenodd;stroke:#00c400;stroke-width:1px;stroke-linecap:butt;stroke-linejoin:miter;stroke-opacity:1"
     d="m 1248.4693,1781.1282 -425.48731,-2.3994 c 0,0 -12.1453,-1.0692 -14.97298,-1.4933 -2.82768,-0.4242 -15.26946,-3.3932 -15.69361,-3.3932 -0.42415,0 -11.87625,-3.676 -13.29009,-4.6657 -1.41384,-0.9897 -14.27977,-6.5037 -15.26946,-7.2106 -0.98969,-0.7069 -18.52129,-13.1487 -19.3696,-14.1384"
     id="A_B"
     inkscape:connector-curvature="0" />
  <path
     style="fill:none;fill-rule:evenodd;stroke:#b80000;stroke-width:1px;stroke-linecap:butt;stroke-linejoin:miter;stroke-opacity:1"
     d="m 792.3154,1773.8423 c 0,0 -17.53161,-5.9382 -21.49036,-8.2003 -3.95874,-2.2621 -13.85562,-5.9381 -15.55223,-8.2003 -1.6966,-2.2621 -9.89687,-7.3519 -11.59348,-9.8968 -1.6966,-2.5449 -11.59348,-13.2901 -13.00731,-15.2695 -1.41384,-1.9794 -5.37259,-8.483 -6.50366,-9.8969 -1.13108,-1.4138 -3.95875,-7.6347 -5.08982,-9.0485 -1.13108,-1.4139 -1.97938,-4.8071 -3.67599,-7.6348 -1.6966,-2.8276 -4.24151,-11.5935 -5.08982,-13.5728 -0.8483,-1.9794 -3.11044,-16.1178 -4.24151,-19.511 -1.13107,-3.3932 -1.69661,-19.511 -2.26215,-21.4904 -0.56553,-1.9793 -1.6966,-15.2694 -1.97937,-22.0558 -0.28277,-6.7865 -1.69661,-17.8144 -1.69661,-19.7938 0,-1.9794 0,-17.5316 -0.28277,-20.0765 -0.28276,-2.5449 0.84831,-12.4418 0.56554,-16.9661 -0.28277,-4.5243 1.13107,-14.7039 1.69661,-20.642 0.56553,-5.9382 0.8483,-10.1797 1.6966,-13.8556"
     id="B_C"
     inkscape:connector-curvature="0" />
  <path
     style="fill:none;fill-rule:evenodd;stroke:#0000e7;stroke-width:1px;stroke-linecap:butt;stroke-linejoin:miter;stroke-opacity:1"
     d="m 700.21451,1589.179 c 0,0 0.79979,-23.1938 0.79979,-25.5932 0,-2.3994 1.99947,-4.3988 2.39937,-13.9963 0.39989,-9.5974 5.99841,-25.5932 6.3983,-29.1923 0.3999,-3.599 9.59746,-25.9931 10.39725,-27.9925 0.79979,-1.9995 13.1965,-21.9942 14.79608,-24.3936 1.59957,-2.3993 13.5964,-17.5953 16.79555,-20.7945 3.19915,-3.1991 17.59534,-13.9963 17.59534,-13.9963 l 27.1928,-17.5953 23.59375,-9.9974 21.59427,-5.1986 28.99233,-5.5985 c 0,0 16.79555,-2.9992 17.79528,-2.9992 0.99974,0 29.19227,0.7998 30.192,0.7998 0.99974,0 37.3901,0.3999 37.3901,0.3999 l 52.38608,1.7995 51.5864,2.3994 49.9867,1.3996 33.7911,2.1994 121.7717,3.4358 93.3134,-0.5655 70.6919,0 152.1291,2.2622 292.9475,-1.6967 c 0,0 24.9462,-0.8365 25.9459,-0.6365 0.9997,0.1999 11.197,-1.7996 12.9966,-1.9995 1.7995,-0.1999 13.9963,-2.5993 18.9949,-3.3991 4.9987,-0.7998 20.1947,-3.599 23.3938,-4.9987 3.1992,-1.3996 24.5935,-10.1973 26.7929,-10.9971 2.1995,-0.7997 19.9947,-13.9963 19.9947,-13.9963 0,0 9.7974,-8.9976 13.5964,-12.7966 3.799,-3.799 16.9955,-19.9947 18.7951,-21.5942 1.7995,-1.5996 8.3977,-15.396 9.9973,-18.5951 1.5996,-3.1992 6.3983,-19.9947 7.1981,-21.7942 0.7998,-1.7996 4.3988,-14.1963 4.3988,-16.3957 0,-2.1994 3.1992,-21.5943 3.1992,-24.5935 0,-2.9992 1.1997,-32.5914 0.9997,-35.9905 -0.1999,-3.3991 -1.5995,-203.1461 -1.5995,-203.1461 0,0 -2.6015,-17.87841 -3.3791,-22.04924 -0.7776,-4.17083 -3.888,-16.32984 -4.3122,-17.6023 -0.4241,-1.27245 -3.9587,-12.93662 -4.5243,-14.49185 -0.5655,-1.55522 -2.8983,-8.62441 -3.6053,-10.5331 -0.7069,-1.90868 -6.5743,-12.93662 -7.3519,-14.35046 -0.7776,-1.41384 -4.1708,-6.71574 -5.1605,-7.9175 -0.9897,-1.20177 -2.9691,-4.45359 -5.0899,-6.78643 -2.1207,-2.33283 -6.9985,-7.49335 -7.6347,-8.27096 -0.6362,-0.77761 -5.3019,-4.87774 -5.9381,-5.79674 -0.6362,-0.91899 -5.7967,-5.2312 -6.2916,-5.44328 -0.4948,-0.21207 -6.9985,-5.08982 -7.9175,-5.72605 -0.919,-0.63622 -6.7864,-3.53459 -8.0589,-4.24151 -1.2724,-0.70692 -8.483,-4.02944 -8.9779,-4.24152 -0.4948,-0.21208 -12.371,-4.17083 -13.078,-4.24152 -0.7069,-0.0707 -7.2105,-1.83799 -8.2002,-2.19145 -0.9897,-0.35346 -13.4315,-1.69661 -14.4212,-1.90868 -0.9897,-0.21208 -13.078,-1.7673 -13.078,-1.7673 l -17.7437,-0.56554 -421.487,0.16194 c 0,0 -11.397,1.79952 -12.0968,1.89949 -0.6999,0.1 -5.9985,1.09971 -7.2981,1.29966 -1.2997,0.19995 -5.8984,1.19968 -8.1978,1.69955 -2.2994,0.49987 -8.0979,2.09944 -10.5972,2.69928 -2.4994,0.59984 -8.1979,2.19942 -10.7972,2.99921 -2.5993,0.79979 -15.9957,6.29833 -18.4951,7.89791 -2.4993,1.59957 -13.6963,9.59745 -16.1957,11.6969 -2.4993,2.09944 -6.7982,6.29833 -9.9973,10.49722 -3.1992,4.19889 -6.6983,8.59772 -8.8977,14.99603 -2.1994,6.3983 -3.699,14.49616 -4.1989,18.69504 -0.4998,4.19889 -4.2637,32.34401 -4.8292,37.7166 -0.5655,5.37259 -1.6966,42.9807 -1.6966,42.9807"
     id="path4144"
     inkscape:connector-curvature="0" />
  <path
     style="fill:none;fill-rule:evenodd;stroke:#f1ba00;stroke-width:1px;stroke-linecap:butt;stroke-linejoin:miter;stroke-opacity:1"
     d="m 1407.6181,1376.5535 c 4.5243,5.0898 14.704,14.1384 19.7938,18.0971 5.0898,3.9588 13.0073,7.352 22.6214,9.6141 9.6141,2.2622 69.5609,2.8277 69.5609,2.8277 l 382.8676,-4.5243 c 0,0 27.1457,-2.2621 35.0632,-3.9587 7.9175,-1.6966 32.8011,-10.1797 39.022,-12.4418 6.2209,-2.2621 26.5802,-16.9661 30.5389,-20.3593 3.9587,-3.3932 13.0073,-12.4418 18.6627,-18.6627 5.6553,-6.2208 17.5316,-27.7112 19.2282,-32.2355 1.6966,-4.5243 9.0486,-19.7937 11.3107,-32.801 2.2621,-13.0074 6.2209,-35.6288 5.6554,-42.9808 -0.5656,-7.3519 -3.3933,-234.6972 -3.3933,-234.6972 0,0 -4.5242,-26.58021 -5.0898,-28.27681 -0.5655,-1.69661 -6.2209,-15.835 -8.483,-22.05589 -2.2622,-6.2209 -6.7864,-17.53161 -8.483,-19.79375 -1.6967,-2.26214 -14.1384,-15.26946 -16.4006,-19.22821 -2.2621,-3.95875 -8.5261,-10.41609 -9.5258,-11.21588 -0.9997,-0.79979 -10.0973,-7.29807 -11.197,-8.2978 -1.0997,-0.99974 -11.597,-6.89818 -13.5964,-7.89791 -1.9995,-0.99974 -10.4972,-4.09892 -11.8969,-4.49881 -1.3996,-0.39989 -10.3972,-3.29913 -12.1967,-3.49907 -1.7996,-0.19995 -21.1944,-2.89923 -22.2941,-2.99921 -1.0997,-0.1 -8.7977,-1.09971 -8.7977,-1.09971 l -431.7856,-0.99973 c 0,0 -9.1976,0.79979 -12.7966,1.19968 -3.5991,0.3999 -9.1976,0.79979 -11.1971,0.79979 -1.9994,0 -13.1965,2.79926 -15.1959,3.59905 -1.9995,0.79979 -16.3957,5.19862 -19.9948,6.3983 -3.599,1.19968 -11.197,4.79873 -13.9962,6.39831 -2.7993,1.59957 -11.9969,8.79767 -13.9963,9.99735 -1.9995,1.19968 -12.3968,11.59693 -13.5964,13.1965 -1.1997,1.59958 -5.9984,13.5964 -7.9979,16.39566 -1.9995,2.79926 -2.7993,7.59799 -3.5991,10.79714 -0.7998,3.19915 -3.599,33.19121 -3.599,35.99047 0,0 -1.9995,20.99443 -2.1994,23.39383 -0.2,2.3993 -0.7998,27.1928 -0.7998,27.1928"
     id="path4146"
     inkscape:connector-curvature="0"
     sodipodi:nodetypes="cssccssssssccccccssccscccsscscccssc" />
  <path
     style="fill:none;fill-rule:evenodd;stroke:#dc00d2;stroke-width:1px;stroke-linecap:butt;stroke-linejoin:miter;stroke-opacity:1"
     d="m 1382.2338,998.13559 -0.3998,85.77731 1.5995,91.3758 2.3994,118.9684 c 0,0 4.1989,37.79 6.3983,44.1883 2.1994,6.3983 6.9981,25.9932 8.5977,27.1928 1.5996,1.1997 19.3949,21.7943 21.5943,23.5938 2.1994,1.7995 18.795,11.9968 21.7942,12.7966"
     id="path4148"
     inkscape:connector-curvature="0" />
  <path
     style="fill:none;fill-rule:evenodd;stroke:#008c9a;stroke-width:1px;stroke-linecap:butt;stroke-linejoin:miter;stroke-opacity:1"
     d="m 1380.2344,998.53548 -0.9998,88.77652 1.1997,38.1898 2.3994,34.7908 0.9997,68.9818 1.1997,55.9851 -1.1997,25.3933 -1.1997,18.3951 -2.9992,12.1968 -5.1986,22.9939 -5.7984,13.7964 -6.3984,11.197"
     id="path4150"
     inkscape:connector-curvature="0" />
  <path
     style="fill:none;fill-rule:evenodd;stroke:#00e9e2;stroke-width:1px;stroke-linecap:butt;stroke-linejoin:miter;stroke-opacity:1"
     d="m 1374.036,1363.6388 -6.1983,15.3959 -7.798,14.5961 -11.5969,13.9963 -14.996,12.3967 -9.3975,6.3983 -18.7951,8.7977 -14.1962,4.7987 -19.1949,4.1989 -19.3949,3.799 -14.5961,0.9997 -14.3962,1.3997 -25.3933,2.7992 -26.7929,1.5996 -25.1933,1.7995 -36.1904,1.3997 -30.392,-0.2 -35.5905,-0.7998 -24.7935,-0.9997 -25.79313,-0.2 -30.79185,-0.3998 -26.7929,-0.2 -21.59428,0.7998 -18.19518,0.7998 -22.59401,3.3991 -19.39487,4.9987 -15.99576,6.1983 -17.99523,9.9974 -18.39513,14.796 -15.19597,16.1958 -13.19651,20.7945 -8.39777,18.1951 -6.19836,18.5951 -3.59905,17.9952 -2.39936,20.9945 0.39989,17.9952 5.79847,30.192 5.79846,13.7964 18.99497,30.3919 14.59613,13.9963 11.39698,8.5977 12.39672,6.1984 14.19624,5.1986 16.79555,2.3994 22.99391,0.9997 21.99417,0.1999 26.7929,-1.9994 24.79344,-2.1994 48.38718,-1.5996 166.55585,-0.7998"
     id="path4152"
     inkscape:connector-curvature="0" />
  <path
     sodipodi:type="star"
     style="opacity:0.97000002;fill:#000000;stroke:#00e9e2;stroke-opacity:1"
     id="STA"
     sodipodi:sides="5"
     sodipodi:cx="1179.6875"
     sodipodi:cy="1799.5233"
     sodipodi:r1="24.883568"
     sodipodi:r2="12.441784"
     sodipodi:arg1="0.78539816"
     sodipodi:arg2="1.4137167"
     inkscape:flatsided="false"
     inkscape:rounded="0"
     inkscape:randomized="0"
     d="m 1197.2828,1817.1187 -15.649,-5.3068 -13.2432,9.8828 0.2112,-16.5229 -13.4915,-9.5411 15.7795,-4.9051 4.9051,-15.7795 9.5411,13.4915 16.5229,-0.2112 -9.8828,13.2432 z"
     inkscape:transform-center-x="1.2028942"
     inkscape:transform-center-y="-1.2028942" />
  <path
     sodipodi:type="star"
     style="opacity:0.97000002;fill:#000000;stroke:#00e9e2;stroke-opacity:1"
     id="STB"
     sodipodi:sides="5"
     sodipodi:cx="747.80188"
     sodipodi:cy="1793.9248"
     sodipodi:r1="20.18574"
     sodipodi:r2="10.09287"
     sodipodi:arg1="0.98279372"
     sodipodi:arg2="1.6111123"
     inkscape:flatsided="false"
     inkscape:rounded="0"
     inkscape:randomized="0"
     d="m 758.99891,1810.7204 -11.60382,-6.7109 -12.10665,5.7544 2.79664,-13.1096 -9.21397,-9.7359 13.33225,-1.3914 6.41211,-11.7715 5.44313,12.2497 13.17687,2.4607 -9.96821,8.9621 z"
     inkscape:transform-center-x="-0.25141202"
     inkscape:transform-center-y="-1.6868933" />
  <path
     sodipodi:type="star"
     style="opacity:0.97000002;fill:#000000;stroke:#00e9e2;stroke-opacity:1"
     id="STC"
     sodipodi:sides="5"
     sodipodi:cx="676.62079"
     sodipodi:cy="1485.2065"
     sodipodi:r1="25.755165"
     sodipodi:r2="12.877582"
     sodipodi:arg1="1.1210367"
     sodipodi:arg2="1.7493552"
     inkscape:flatsided="false"
     inkscape:rounded="0"
     inkscape:randomized="0"
     d="m 687.81782,1508.4004 -13.48424,-10.521 -16.31139,5.1435 5.83923,-16.0755 -9.93223,-13.9236 17.09308,0.5858 10.17293,-13.7487 4.72488,16.4375 16.21945,5.4264 -14.17294,9.5731 z"
     inkscape:transform-center-x="-1.4135722"
     inkscape:transform-center-y="-1.0759095" />
  <path
     sodipodi:type="star"
     style="opacity:0.97000002;fill:#000000;stroke:#00e9e2;stroke-opacity:1"
     id="STD"
     sodipodi:sides="5"
     sodipodi:cx="1353.2415"
     sodipodi:cy="942.9502"
     sodipodi:r1="10.878295"
     sodipodi:r2="5.4391475"
     sodipodi:arg1="0.94200004"
     sodipodi:arg2="1.5703186"
     inkscape:flatsided="false"
     inkscape:rounded="0"
     inkscape:randomized="0"
     d="m 1359.6398,951.74786 -6.3957,-3.35852 -6.3925,3.36463 1.2177,-7.12051 -5.1753,-5.0399 7.1483,-1.0422 3.194,-6.47946 3.2001,6.47641 7.1493,1.03536 -5.1705,5.04484 z"
     inkscape:transform-center-x="0.001606013"
     inkscape:transform-center-y="-1.0372572" />
  <path
     sodipodi:type="star"
     style="opacity:0.97000002;fill:#000000;stroke:#00e9e2;stroke-opacity:1"
     id="STE"
     sodipodi:sides="5"
     sodipodi:cx="1378.035"
     sodipodi:cy="1439.6187"
     sodipodi:r1="21.115013"
     sodipodi:r2="10.557506"
     sodipodi:arg1="0.91971961"
     sodipodi:arg2="1.5480381"
     inkscape:flatsided="false"
     inkscape:rounded="0"
     inkscape:randomized="0"
     d="m 1390.8316,1456.4142 -12.5563,-6.2408 -12.2594,6.8057 2.0552,-13.8704 -10.2609,-9.5563 13.8265,-2.3315 5.9178,-12.7118 6.4901,12.4293 13.9183,1.7001 -9.8154,10.0133 z"
     inkscape:transform-center-x="0.14848205"
     inkscape:transform-center-y="-1.8745673" />
  <path
     sodipodi:type="star"
     style="opacity:0.97000002;fill:#000000;stroke:#00e9e2;stroke-opacity:1"
     id="STF"
     sodipodi:sides="5"
     sodipodi:cx="1186.0858"
     sodipodi:cy="1720.3444"
     sodipodi:r1="17.540724"
     sodipodi:r2="8.7703619"
     sodipodi:arg1="0.75315128"
     sodipodi:arg2="1.3814698"
     inkscape:flatsided="false"
     inkscape:rounded="0"
     inkscape:randomized="0"
     d="m 1198.8824,1732.3412 -11.146,-3.3832 -9.1059,7.2639 -0.2267,-11.646 -9.7222,-6.4155 11.0059,-3.8145 3.0972,-11.2288 7.0288,9.2885 11.6363,-0.5243 -6.6619,9.555 z"
     inkscape:transform-center-x="1.0201022"
     inkscape:transform-center-y="-0.67488513" />
</svg>
