<?xml version="1.0" encoding="UTF-8" standalone="no"?>
<!-- Created with Inkscape (http://www.inkscape.org/) -->

<svg
   xmlns:dc="http://purl.org/dc/elements/1.1/"
   xmlns:cc="http://creativecommons.org/ns#"
   xmlns:rdf="http://www.w3.org/1999/02/22-rdf-syntax-ns#"
   xmlns:svg="http://www.w3.org/2000/svg"
   xmlns="http://www.w3.org/2000/svg"
   xmlns:xlink="http://www.w3.org/1999/xlink"
   xmlns:sodipodi="http://sodipodi.sourceforge.net/DTD/sodipodi-0.dtd"
   xmlns:inkscape="http://www.inkscape.org/namespaces/inkscape"
   id="svg2"
   version="1.1"
   inkscape:version="0.48.4 r9939"
   width="2350"
   height="1890"
   sodipodi:docname="stk.png">
  <metadata
     id="metadata8">
    <rdf:RDF>
      <cc:Work
         rdf:about="">
        <dc:format>image/svg+xml</dc:format>
        <dc:type
           rdf:resource="http://purl.org/dc/dcmitype/StillImage" />
        <dc:title></dc:title>
      </cc:Work>
    </rdf:RDF>
  </metadata>
  <defs
     id="defs6" />
  <sodipodi:namedview
     pagecolor="#ffffff"
     bordercolor="#666666"
     borderopacity="1"
     objecttolerance="10"
     gridtolerance="10"
     guidetolerance="10"
     inkscape:pageopacity="0"
     inkscape:pageshadow="2"
     inkscape:window-width="1855"
     inkscape:window-height="1056"
     id="namedview4"
     showgrid="false"
     inkscape:zoom="1.4057885"
     inkscape:cx="1232.4643"
     inkscape:cy="1067.5165"
     inkscape:window-x="65"
     inkscape:window-y="24"
     inkscape:window-maximized="1"
     inkscape:current-layer="svg2" />
  <image
     width="2350"
     height="1890"
     xlink:href="file:///home/smaug/catkin_ws/src/pointcloud_cluster/src/pointcloud_registration/map/stk.png"
     id="image10"
     x="0"
     y="0" />
  <path
     style="fill:none;stroke:#ec2323;stroke-width:1px;stroke-linecap:butt;stroke-linejoin:miter;stroke-opacity:1"
     d="m 1153.0896,663.64194 374.1672,77.53656 c 0,0 29.8765,10.67017 41.9693,36.98992 12.0929,26.31975 -13.5155,89.62942 -13.5155,89.62942 0,0 -30.5878,39.12395 -72.5572,38.41261 -41.9693,-0.71135 -453.8378,-93.18614 -453.8378,-93.18614 -11.772,-8.51063 -10.4151,-14.50203 -10.6702,-21.34034 -0.4027,-14.02937 13.2785,-59.75295 19.9177,-89.62942"
     id="lobby_exit"
     inkscape:connector-curvature="0"
     sodipodi:nodetypes="ccscsccc" />
  <path
     style="fill:none;stroke:#40cd24;stroke-width:1px;stroke-linecap:butt;stroke-linejoin:miter;stroke-opacity:1"
     d="m 1030.8915,738.64084 15.0899,-61.11409 c 0,0 3.7725,-10.05993 10.5629,-13.32941 6.7905,-3.26948 12.8264,-8.80244 26.4073,-7.29345 13.5809,1.50899 136.8151,21.62886 136.8151,21.62886 l 89.0304,18.35937"
     id="exit_lobby"
     inkscape:connector-curvature="0" />
  <path
     sodipodi:type="star"
     style="fill:#fefefe;fill-opacity:1;stroke:#40cd24;stroke-width:1.5;stroke-miterlimit:4;stroke-opacity:1;stroke-dasharray:none"
     id="STlobby"
     sodipodi:sides="5"
     sodipodi:cx="1274.8448"
     sodipodi:cy="672.49677"
     sodipodi:r1="7.5029154"
     sodipodi:r2="3.7514577"
     sodipodi:arg1="0.88034987"
     sodipodi:arg2="1.5086684"
     inkscape:flatsided="false"
     inkscape:rounded="0"
     inkscape:randomized="0"
     d="m 1279.6233,678.28123 -4.5455,-2.04024 -4.2577,2.58786 0.5358,-4.95354 -3.7769,-3.24956 4.8766,-1.02122 1.9234,-4.5962 2.4782,4.32239 4.9656,0.40895 -3.345,3.6926 z"
     inkscape:transform-center-x="0.14395271"
     inkscape:transform-center-y="-0.5781752" />
  <path
     sodipodi:type="star"
     style="fill:#fefefe;fill-opacity:1;stroke:#cd2432;stroke-width:1.5;stroke-miterlimit:4;stroke-opacity:1;stroke-dasharray:none"
     id="STexit"
     sodipodi:sides="5"
     sodipodi:cx="1034.9155"
     sodipodi:cy="741.40735"
     sodipodi:r1="7.2543197"
     sodipodi:r2="3.6271598"
     sodipodi:arg1="0.5880026"
     sodipodi:arg2="1.2163211"
     inkscape:flatsided="false"
     inkscape:rounded="0"
     inkscape:randomized="0"
     d="m 1040.9515,745.43132 -4.777,-0.62232 -3.2208,3.58236 -0.8843,-4.73548 -4.4023,-1.95615 4.2304,-2.30437 0.5001,-4.79132 3.4988,3.3113 4.7114,-1.00505 -2.0681,4.35087 z"
     inkscape:transform-center-x="0.60623309"
     inkscape:transform-center-y="0.09035206" />
</svg>
